<?xml version="1.0" encoding="iso-8859-1"?>
<!-- Generated SVG example following similar style -->
<svg version="1.1" id="Layer_1" xmlns="http://www.w3.org/2000/svg" xmlns:xlink="http://www.w3.org/1999/xlink" 
     viewBox="0 0 512 512" xml:space="preserve">
  
  <!-- Background Container -->
  <path style="fill:#7F8499;" d="M493.714,425.143H73.143c-10.099,0-18.286-8.186-18.286-18.286V123.429
        c0-10.099,8.186-18.286,18.286-18.286h420.571c10.099,0,18.286,8.186,18.286,18.286v283.429
        C512,416.957,503.814,425.143,493.714,425.143z"/>
  
  <!-- Inner Details -->
  <g>
    <path style="fill:#707487;" d="M91.429,297.143H54.857v109.714c0,10.098,8.187,18.286,18.286,18.286H128v-91.429
          C128,313.517,111.626,297.143,91.429,297.143z"/>
    <path style="fill:#707487;" d="M292.571,434.286h-18.286c-5.049,0-9.143-4.094-9.143-9.143v-27.429h36.571v27.429
          C301.714,430.192,297.621,434.286,292.571,434.286z"/>
  </g>

  <!-- Additional Layer -->
  <path style="fill:#C7CFE2;" d="M82.286,406.857h402.286c5.049,0,9.143-4.094,9.143-9.143v-27.429H73.143v27.429
        C73.143,402.763,77.237,406.857,82.286,406.857z"/>

  <!-- Rectangular Section -->
  <rect x="73.143" y="370.286" style="fill:#AFB9D2;" width="54.857" height="36.571"/>

  <!-- Top Display -->
  <path style="fill:#E4EAF8;" d="M301.714,86.857c-6.059,0-11.43,2.947-14.758,7.486c-1.685,2.298-5.371,2.298-7.056,0
        c-3.328-4.538-8.698-7.486-14.758-7.486H82.286c-5.049,0-9.143,4.094-9.143,9.143v283.429c0,5.049,4.094,9.143,9.143,9.143h182.857
        c6.059,0,11.43,2.947,14.758,7.486c1.685,2.298,5.371,2.298,7.056,0c3.327-4.539,8.698-7.486,14.758-7.486h182.857
        c5.049,0,9.143-4.094,9.143-9.143V96c0-5.049-4.094-9.143-9.143-9.143H301.714z"/>
  
  <!-- Bottom Rectangle Section -->
  <path style="fill:#5B5D6E;" d="M18.286,498.286h73.143c10.099,0,18.286-8.186,18.286-18.286V333.714
        c0-10.099-8.186-18.286-18.286-18.286H18.286C8.186,315.429,0,323.615,0,333.714V480C0,490.099,8.186,498.286,18.286,498.286z"/>
  
  <!-- White Background Area -->
  <path style="fill:#FFFFFF;" d="M96,461.714H13.714c-2.525,0-4.571-2.047-4.571-4.571V338.286c0-2.525,2.047-4.571,4.571-4.571H96
        c2.525,0,4.571,2.047,4.571,4.571v118.857C100.571,459.667,98.525,461.714,96,461.714z"/>

  <!-- Final Circle Element -->
  <circle style="fill:#464655;" cx="54.857" cy="480" r="11.429"/>
</svg>
